<svg xmlns="http://www.w3.org/2000/svg" viewBox="0 0 173.28 52.48"><defs><style>.cls-1{fill:#c90dc4;}.cls-2{fill:#fff;}</style></defs><g id="Camada_2" data-name="Camada 2"><g id="Camada_1-2" data-name="Camada 1"><path class="cls-1" d="M22.53,49.62a1.09,1.09,0,0,0,.72-.23,1.07,1.07,0,0,0,.39-.64h1.07a1.89,1.89,0,0,1-.37.92,2.07,2.07,0,0,1-.81.65,2.18,2.18,0,0,1-1,.22,2,2,0,0,1-1.13-.34,1.94,1.94,0,0,1-.68-.92A3,3,0,0,1,20.55,48V47.8A3.47,3.47,0,0,1,21,46.45a2.62,2.62,0,0,1,.91-.93,2.33,2.33,0,0,1,1.25-.31,1.79,1.79,0,0,1,1.33.55,1.93,1.93,0,0,1,.5,1.39h-1a1.12,1.12,0,0,0-.22-.72.76.76,0,0,0-.62-.3,1.15,1.15,0,0,0-1,.56,3.09,3.09,0,0,0-.41,1.64C21.63,49.18,21.92,49.61,22.53,49.62Z"/><path class="cls-1" d="M30.59,46.36a2.2,2.2,0,0,0-.44,0,1.31,1.31,0,0,0-1.18.62l-.62,3.52H27.23l.88-5.15h1.07l-.11.58a1.48,1.48,0,0,1,1.22-.68,1.77,1.77,0,0,1,.43.07Z"/><path class="cls-1" d="M34.77,50.54a2.14,2.14,0,0,1-1.16-.34,1.84,1.84,0,0,1-.72-.88,2.56,2.56,0,0,1-.18-1.25v-.19a3.4,3.4,0,0,1,.46-1.41,2.57,2.57,0,0,1,.93-.95,2.21,2.21,0,0,1,1.21-.31,1.66,1.66,0,0,1,1.44.72,2.62,2.62,0,0,1,.37,1.82l-.07.5H33.82a1.46,1.46,0,0,0,.25,1,1,1,0,0,0,.8.38A1.72,1.72,0,0,0,36.21,49l.57.6a2.2,2.2,0,0,1-.85.72A2.49,2.49,0,0,1,34.77,50.54Zm.48-4.41c-.59,0-1,.4-1.34,1.27h2.14l0-.1a1.55,1.55,0,0,0,0-.43.86.86,0,0,0-.26-.53A.87.87,0,0,0,35.25,46.13Z"/><path class="cls-1" d="M39.75,47.87a4.21,4.21,0,0,1,.43-1.42,2.42,2.42,0,0,1,.82-1,2,2,0,0,1,1.09-.3,1.56,1.56,0,0,1,1.23.59l.49-2.64h1.13l-1.27,7.3h-1l.07-.54a1.8,1.8,0,0,1-1.41.64A1.4,1.4,0,0,1,40.19,50a2.43,2.43,0,0,1-.47-1.44,3.71,3.71,0,0,1,0-.58Zm1.1.44a1.49,1.49,0,0,0,.18.94.74.74,0,0,0,.64.36A1.33,1.33,0,0,0,42.8,49l.38-2.21a.87.87,0,0,0-.86-.61,1.16,1.16,0,0,0-1,.57A2.91,2.91,0,0,0,40.85,48.31Z"/><path class="cls-1" d="M49.15,50.54A2.14,2.14,0,0,1,48,50.2a1.84,1.84,0,0,1-.72-.88,2.56,2.56,0,0,1-.18-1.25v-.19a3.4,3.4,0,0,1,.46-1.41,2.57,2.57,0,0,1,.93-.95,2.21,2.21,0,0,1,1.21-.31,1.66,1.66,0,0,1,1.44.72,2.62,2.62,0,0,1,.37,1.82l-.07.5H48.2a1.46,1.46,0,0,0,.25,1,1,1,0,0,0,.8.38A1.72,1.72,0,0,0,50.59,49l.57.6a2.2,2.2,0,0,1-.85.72A2.49,2.49,0,0,1,49.15,50.54Zm.48-4.41c-.59,0-1,.4-1.34,1.27h2.14l0-.1a1.55,1.55,0,0,0,0-.43.86.86,0,0,0-.26-.53A.87.87,0,0,0,49.63,46.13Z"/><path class="cls-1" d="M55.82,45.3l-.11.6a2,2,0,0,1,1.52-.69,1.24,1.24,0,0,1,1.07.52,2,2,0,0,1,.26,1.39L58,50.45H56.87l.57-3.34a2.41,2.41,0,0,0,0-.38.6.6,0,0,0-.67-.58,1.35,1.35,0,0,0-1.13.63L55,50.45H53.87l.89-5.15Z"/><path class="cls-1" d="M63.37,49.62a1.1,1.1,0,0,0,1.12-.87h1.06a1.89,1.89,0,0,1-.37.92,2.07,2.07,0,0,1-.81.65,2.18,2.18,0,0,1-1,.22,2,2,0,0,1-1.13-.34,1.94,1.94,0,0,1-.68-.92A3,3,0,0,1,61.39,48l0-.17a3.3,3.3,0,0,1,.43-1.35,2.56,2.56,0,0,1,.92-.93A2.27,2.27,0,0,1,64,45.21a1.83,1.83,0,0,1,1.34.55,2,2,0,0,1,.49,1.39h-1a1.12,1.12,0,0,0-.22-.72.76.76,0,0,0-.62-.3,1.15,1.15,0,0,0-1,.56,3.09,3.09,0,0,0-.41,1.64C62.47,49.18,62.76,49.61,63.37,49.62Z"/><path class="cls-1" d="M69.26,50.45H68.14L69,45.3h1.13ZM69.19,44a.66.66,0,0,1,.17-.45.63.63,0,0,1,.46-.19.58.58,0,0,1,.46.17.54.54,0,0,1,.19.43.61.61,0,0,1-.18.45.66.66,0,0,1-.46.18.6.6,0,0,1-.45-.16A.56.56,0,0,1,69.19,44Z"/><path class="cls-1" d="M75.52,50.45a1.72,1.72,0,0,1,0-.48,2,2,0,0,1-1.38.57A1.62,1.62,0,0,1,73,50.11,1.33,1.33,0,0,1,72.58,49a1.56,1.56,0,0,1,.71-1.27,3.05,3.05,0,0,1,1.78-.47h.74l.06-.35a1,1,0,0,0,0-.35.62.62,0,0,0-.68-.53,1,1,0,0,0-.63.19.81.81,0,0,0-.34.51H73.1a1.41,1.41,0,0,1,.33-.83,2.06,2.06,0,0,1,.81-.56,2.74,2.74,0,0,1,1.07-.19,1.78,1.78,0,0,1,1.31.51A1.51,1.51,0,0,1,77,47l-.4,2.41,0,.42a1.46,1.46,0,0,0,.07.55v.09Zm-1.15-.83a1.29,1.29,0,0,0,.66-.16,1.84,1.84,0,0,0,.51-.45l.18-1h-.54a1.86,1.86,0,0,0-1,.24.89.89,0,0,0-.44.66.59.59,0,0,0,.14.5A.73.73,0,0,0,74.37,49.62Z"/><path class="cls-1" d="M80.77,50.45H79.64l.9-5.15h1.12ZM80.7,44a.62.62,0,0,1,.17-.45.61.61,0,0,1,.46-.19.59.59,0,0,1,.46.17A.57.57,0,0,1,82,44a.61.61,0,0,1-.18.45.65.65,0,0,1-.45.18.63.63,0,0,1-.46-.16A.58.58,0,0,1,80.7,44Z"/><path class="cls-1" d="M87.05,49c0-.31-.15-.53-.61-.65a5.81,5.81,0,0,1-.94-.3,1.29,1.29,0,0,1-1-1.27,1.49,1.49,0,0,1,.63-1.15,2.29,2.29,0,0,1,1.45-.44,2,2,0,0,1,1.33.46,1.45,1.45,0,0,1,.51,1.18H87.35a.7.7,0,0,0-.19-.56.83.83,0,0,0-.56-.21,1.15,1.15,0,0,0-.65.18.71.71,0,0,0-.31.49c0,.29.16.49.61.6a7.27,7.27,0,0,1,1,.31A1.31,1.31,0,0,1,88.16,49a1.53,1.53,0,0,1-.32.86,1.94,1.94,0,0,1-.8.55,2.69,2.69,0,0,1-1.06.18,2.08,2.08,0,0,1-1.39-.49A1.55,1.55,0,0,1,84,48.82h1.09a.82.82,0,0,0,.25.62.9.9,0,0,0,.65.22,1.31,1.31,0,0,0,.69-.17A.67.67,0,0,0,87.05,49Z"/><path class="cls-1" d="M98.26,49c0-.31-.15-.53-.61-.65a5.81,5.81,0,0,1-.94-.3,1.29,1.29,0,0,1-.95-1.27,1.49,1.49,0,0,1,.63-1.15,2.29,2.29,0,0,1,1.45-.44,2,2,0,0,1,1.34.46,1.47,1.47,0,0,1,.5,1.18H98.56a.7.7,0,0,0-.19-.56.83.83,0,0,0-.56-.21,1.15,1.15,0,0,0-.65.18.75.75,0,0,0-.31.49c0,.29.16.49.61.6a7.27,7.27,0,0,1,1,.31A1.31,1.31,0,0,1,99.37,49a1.53,1.53,0,0,1-.32.86,1.94,1.94,0,0,1-.8.55,2.66,2.66,0,0,1-1.06.18,2.1,2.1,0,0,1-1.39-.49,1.55,1.55,0,0,1-.55-1.23h1.09a.82.82,0,0,0,.25.62.9.9,0,0,0,.65.22,1.31,1.31,0,0,0,.69-.17A.67.67,0,0,0,98.26,49Z"/><path class="cls-1" d="M104.38,50.54a2.09,2.09,0,0,1-1.16-.34,1.91,1.91,0,0,1-.73-.88,2.56,2.56,0,0,1-.18-1.25l0-.19a3.4,3.4,0,0,1,.45-1.41,2.57,2.57,0,0,1,.93-.95,2.23,2.23,0,0,1,1.21-.31,1.68,1.68,0,0,1,1.45.72,2.62,2.62,0,0,1,.36,1.82l-.07.5h-3.23a1.36,1.36,0,0,0,.25,1,1,1,0,0,0,.79.38,1.69,1.69,0,0,0,1.34-.63l.57.6a2.07,2.07,0,0,1-.85.72A2.45,2.45,0,0,1,104.38,50.54Zm.48-4.41c-.6,0-1,.4-1.34,1.27h2.13l0-.1a1.56,1.56,0,0,0,0-.43.93.93,0,0,0-.27-.53A.85.85,0,0,0,104.86,46.13Z"/><path class="cls-1" d="M109.37,47.87a4.1,4.1,0,0,1,.41-1.39,2.49,2.49,0,0,1,.82-.95,2,2,0,0,1,1.13-.33,1.52,1.52,0,0,1,1.28.63l.18-.53h1l-.85,5a2.41,2.41,0,0,1-.85,1.61,2.53,2.53,0,0,1-1.71.57,2.44,2.44,0,0,1-1-.25,2.22,2.22,0,0,1-.78-.63l.6-.68a1.42,1.42,0,0,0,1.18.64,1.37,1.37,0,0,0,1-.3,1.6,1.6,0,0,0,.53-.91l.08-.36a1.85,1.85,0,0,1-1.35.55,1.46,1.46,0,0,1-1.16-.55,2.38,2.38,0,0,1-.48-1.44A4.17,4.17,0,0,1,109.37,47.87Zm1.11.1a4.35,4.35,0,0,0,0,.52,1.41,1.41,0,0,0,.23.8.77.77,0,0,0,.62.31,1.33,1.33,0,0,0,1.13-.59l.4-2.27a.91.91,0,0,0-.88-.59,1.18,1.18,0,0,0-1,.44,2.5,2.5,0,0,0-.51,1.28Z"/><path class="cls-1" d="M119.63,49.94a1.87,1.87,0,0,1-1.46.6,1.46,1.46,0,0,1-.83-.25,1.24,1.24,0,0,1-.47-.66,2.45,2.45,0,0,1-.08-1l.55-3.33h1.13l-.56,3.35a1.93,1.93,0,0,0,0,.34.59.59,0,0,0,.6.61,1.36,1.36,0,0,0,1.21-.6l.64-3.7h1.13l-.89,5.15h-1.06Z"/><path class="cls-1" d="M127.06,46.36a2.2,2.2,0,0,0-.44,0,1.31,1.31,0,0,0-1.18.62l-.62,3.52h-1.13l.89-5.15h1.07l-.11.58a1.48,1.48,0,0,1,1.21-.68,1.77,1.77,0,0,1,.44.07Z"/><path class="cls-1" d="M131.92,50.45a1.39,1.39,0,0,1,0-.48,1.92,1.92,0,0,1-1.37.57,1.58,1.58,0,0,1-1.11-.43A1.33,1.33,0,0,1,129,49a1.55,1.55,0,0,1,.7-1.27,3.06,3.06,0,0,1,1.79-.47h.73l.07-.35a2,2,0,0,0,0-.35.63.63,0,0,0-.68-.53,1.07,1.07,0,0,0-.64.19.79.79,0,0,0-.33.51h-1.13a1.36,1.36,0,0,1,.34-.83,1.93,1.93,0,0,1,.81-.56,2.7,2.7,0,0,1,1.06-.19,1.76,1.76,0,0,1,1.31.51A1.48,1.48,0,0,1,133.4,47L133,49.39l0,.42a1.46,1.46,0,0,0,.07.55v.09Zm-1.16-.83a1.24,1.24,0,0,0,.66-.16,1.88,1.88,0,0,0,.52-.45l.17-1h-.53a1.88,1.88,0,0,0-1,.24.87.87,0,0,0-.43.66.56.56,0,0,0,.14.5A.7.7,0,0,0,130.76,49.62Z"/><path class="cls-1" d="M139,49c.05-.31-.15-.53-.61-.65a5.81,5.81,0,0,1-.94-.3,1.29,1.29,0,0,1-1-1.27,1.49,1.49,0,0,1,.63-1.15,2.29,2.29,0,0,1,1.45-.44,2,2,0,0,1,1.33.46,1.45,1.45,0,0,1,.51,1.18h-1.12a.7.7,0,0,0-.19-.56.83.83,0,0,0-.56-.21,1.15,1.15,0,0,0-.65.18.75.75,0,0,0-.31.49c0,.29.16.49.61.6a7.27,7.27,0,0,1,1,.31,1.31,1.31,0,0,1,.91,1.29,1.53,1.53,0,0,1-.32.86,1.94,1.94,0,0,1-.8.55,2.69,2.69,0,0,1-1.06.18,2.08,2.08,0,0,1-1.39-.49,1.55,1.55,0,0,1-.55-1.23h1.09a.82.82,0,0,0,.25.62.9.9,0,0,0,.65.22,1.31,1.31,0,0,0,.69-.17A.67.67,0,0,0,139,49Z"/><path class="cls-2" d="M32.5,15.45a5.9,5.9,0,0,0-2.74-2.71,11.36,11.36,0,0,0-5.12-1H16.08c-3.38,0-5.36,1.68-6,5.06l-3,16H0v1.56a4.27,4.27,0,0,0,4.27,4.26H6.08l-2,11H8a4.71,4.71,0,0,0,4.62-3.88l1.54-7.08h5.73a13.76,13.76,0,0,0,5.46-1A9.9,9.9,0,0,0,29.06,35a13.72,13.72,0,0,0,2.37-4.23,33.61,33.61,0,0,0,1.43-5.52,30.76,30.76,0,0,0,.52-5.52A9.8,9.8,0,0,0,32.5,15.45Zm-7.33,6.81c-.09.91-.23,1.89-.41,2.94s-.37,1.87-.6,2.78a8.77,8.77,0,0,1-1,2.44,5.27,5.27,0,0,1-1.7,1.72,4.94,4.94,0,0,1-2.67.66h-3.6l2.34-13.27a2.36,2.36,0,0,1,.72-1.5,2.57,2.57,0,0,1,1.65-.43h1.46a4.22,4.22,0,0,1,2.51.61A3,3,0,0,1,25,19.85,6.45,6.45,0,0,1,25.17,22.26Z"/><path class="cls-2" d="M52.71,11.78a24.66,24.66,0,0,0-8.28.55,11.17,11.17,0,0,0-4,1.8,9.84,9.84,0,0,0-2.76,3.29,16.91,16.91,0,0,0-1.62,5L33.24,38.62h7.9S43,28.17,43.59,24.69C45,17.2,51.3,18.35,51.3,18.35Z"/><path class="cls-2" d="M74.71,13.37a6.4,6.4,0,0,0-3.35-1.52,30.51,30.51,0,0,0-5.18-.38,28.1,28.1,0,0,0-6.12.56,8.14,8.14,0,0,0-4,2.08,10.72,10.72,0,0,0-2.51,4.17,43.76,43.76,0,0,0-1.68,6.82,36.51,36.51,0,0,0-.65,6.28,8.62,8.62,0,0,0,.88,4.18,5.21,5.21,0,0,0,2.73,2.33,13.47,13.47,0,0,0,4.89.73h12.4l1-5.72H63.87c-2,0-3.35-.44-4-1.32a5,5,0,0,1-.49-3.8H70.75a4.79,4.79,0,0,0,2.11-.43,4.35,4.35,0,0,0,1.5-1.19,6.36,6.36,0,0,0,1-1.75,12,12,0,0,0,.58-2.15,18.7,18.7,0,0,0,.31-5.62A5.41,5.41,0,0,0,74.71,13.37Zm-6.56,7.37a3.33,3.33,0,0,1-.39,1c-.2.35-.65.53-1.36.53h-6a8.3,8.3,0,0,1,1.52-4,4.3,4.3,0,0,1,3.28-1.08,3.66,3.66,0,0,1,2.53.73C68.24,18.42,68.39,19.36,68.15,20.74Z"/><path class="cls-2" d="M82.29,13.37c-1.39,1.06-2.3,2.85-2.74,5.34a12.1,12.1,0,0,0-.22,2.84,4.58,4.58,0,0,0,.59,2.08,5.14,5.14,0,0,0,1.59,1.64,21.09,21.09,0,0,0,2.69,1.55l2.7,1.32a18.41,18.41,0,0,1,2.35,1.34,1.83,1.83,0,0,1,.87,1.95,1.35,1.35,0,0,1-.75,1.11,3,3,0,0,1-1.16.26H77.37l-1,5.82H90.27A8.28,8.28,0,0,0,95.8,37a8.4,8.4,0,0,0,2.49-5.07,9.45,9.45,0,0,0,.1-3.31,4.63,4.63,0,0,0-1-2.18,6.94,6.94,0,0,0-2-1.57c-.81-.46-1.74-.95-2.8-1.5l-3.44-1.72a8.17,8.17,0,0,1-1.78-1.11A1.71,1.71,0,0,1,87,18.87a1.2,1.2,0,0,1,.87-1.09,6.47,6.47,0,0,1,1.58-.18H99.8l1-5.82H88.17A9.48,9.48,0,0,0,82.29,13.37Z"/><path class="cls-2" d="M111.27,17.6h1.48a4.75,4.75,0,0,0,4.68-3.93l.34-1.89H112.3l.87-4.92a3.15,3.15,0,0,0-3.1-3.69h-4.15l-1.52,8.61-1,5.82-2.13,12.11a10.94,10.94,0,0,0-.08,4.17,5.43,5.43,0,0,0,1.41,2.77,6.07,6.07,0,0,0,2.72,1.51c1.91.55,5.81.48,7.75.46h3.67l1-5.82h-4.29a7,7,0,0,1-2.52-.36,2.27,2.27,0,0,1-1.27-1.11,3.87,3.87,0,0,1-.33-1.88,20,20,0,0,1,.32-2.63Z"/><path class="cls-2" d="M149.51,18.33a6.87,6.87,0,0,0-1.57-4.19,7.54,7.54,0,0,0-4-2.17,31.6,31.6,0,0,0-6.78-.6,35.17,35.17,0,0,0-7,.6,11.9,11.9,0,0,0-4.89,2.17A11.26,11.26,0,0,0,122,18.33a29.14,29.14,0,0,0-2,6.72,26.63,26.63,0,0,0-.63,6.74A6.75,6.75,0,0,0,120.9,36a7.54,7.54,0,0,0,4,2.14,31.52,31.52,0,0,0,6.78.61,34.92,34.92,0,0,0,7-.61A11.88,11.88,0,0,0,143.62,36a11,11,0,0,0,3.23-4.19,30.3,30.3,0,0,0,2-6.74A26.07,26.07,0,0,0,149.51,18.33Zm-9.15,3.26a31.22,31.22,0,0,1-.51,3.46A33.36,33.36,0,0,1,139,28.5,7.56,7.56,0,0,1,137.77,31a4.66,4.66,0,0,1-1.93,1.46,7.91,7.91,0,0,1-3,.48,6.46,6.46,0,0,1-2.78-.48A2.57,2.57,0,0,1,128.73,31a5.73,5.73,0,0,1-.25-2.48,30.74,30.74,0,0,1,.51-3.45c.26-1.32.55-2.47.85-3.46a7.88,7.88,0,0,1,1.23-2.48A4.6,4.6,0,0,1,133,17.65a7.89,7.89,0,0,1,3-.48,6.48,6.48,0,0,1,2.79.48,2.57,2.57,0,0,1,1.35,1.46A5.75,5.75,0,0,1,140.36,21.59Z"/><path class="cls-1" d="M161.75,8.88h-2.28a2.69,2.69,0,0,1-2.72-3.3l.41-2.28A4.1,4.1,0,0,1,161,0h2.29A2.7,2.7,0,0,1,166,3.3l-.41,2.28A4.09,4.09,0,0,1,161.75,8.88Z"/><path class="cls-1" d="M161.64,21.33h-1.56a1.85,1.85,0,0,1-1.87-2.26l.28-1.56a2.81,2.81,0,0,1,2.66-2.26h1.56a1.84,1.84,0,0,1,1.86,2.26l-.27,1.56A2.81,2.81,0,0,1,161.64,21.33Z"/><path class="cls-1" d="M170,13.91h-1.71a2,2,0,0,1-2-2.47l.3-1.72a3.09,3.09,0,0,1,2.91-2.47h1.71a2,2,0,0,1,2,2.47l-.3,1.72A3.08,3.08,0,0,1,170,13.91Z"/></g></g></svg>